<?xml version="1.0" standalone="no"?>
<!DOCTYPE svg PUBLIC "-//W3C//DTD SVG 20010904//EN"
 "http://www.w3.org/TR/2001/REC-SVG-20010904/DTD/svg10.dtd">
<svg version="1.0" xmlns="http://www.w3.org/2000/svg"
 width="694.000000pt" height="694.000000pt" viewBox="0 0 694.000000 694.000000"
 preserveAspectRatio="xMidYMid meet">
<metadata>
Created by potrace 1.11, written by Peter Selinger 2001-2013
</metadata>
<g transform="translate(0.000000,694.000000) scale(0.100000,-0.100000)"
fill="#000000" stroke="none">
<path d="M418 6900 c-3 -16 -1 -30 3 -30 4 0 9 -10 11 -22 2 -13 8 -22 13 -21
6 1 10 -14 10 -32 0 -18 -3 -31 -8 -28 -5 3 -17 -4 -28 -16 -20 -22 -25 -36
-9 -26 6 3 10 1 10 -4 0 -6 -4 -11 -8 -11 -5 0 -9 -7 -9 -15 0 -8 5 -11 10 -8
7 4 8 -1 3 -13 -4 -10 -4 -15 0 -11 4 3 20 -8 35 -26 16 -17 29 -28 29 -24 0
5 7 1 16 -7 13 -13 99 -23 145 -18 4 1 9 -10 12 -23 2 -14 0 -25 -5 -25 -5 0
-6 -4 -3 -10 3 -5 1 -10 -5 -10 -7 0 -9 -7 -6 -16 3 -8 2 -12 -4 -9 -9 6 -14
-8 -11 -27 0 -5 -3 -8 -9 -8 -5 0 -6 -7 -3 -17 4 -10 2 -14 -4 -10 -7 4 -8 -7
-3 -33 4 -24 3 -43 -3 -49 -8 -8 -8 -14 0 -22 6 -6 9 -18 6 -27 -4 -9 -2 -13
3 -9 6 3 11 -15 11 -46 1 -29 8 -73 16 -99 8 -27 11 -48 7 -48 -4 0 -6 -9 -3
-20 3 -11 9 -17 14 -14 5 3 9 0 9 -5 0 -6 -5 -11 -11 -11 -8 0 -9 -4 0 -13 6
-8 10 -35 8 -60 -1 -26 1 -47 6 -47 5 0 7 -9 4 -20 -3 -12 -1 -18 5 -14 6 4 8
-6 5 -24 -3 -17 -2 -33 1 -36 8 -8 9 -55 1 -51 -3 3 -6 -9 -5 -25 1 -17 4 -30
8 -30 4 0 3 -14 -2 -31 -5 -18 -7 -36 -3 -42 3 -6 2 -7 -4 -4 -6 4 -10 -6 -11
-24 -1 -41 -12 -92 -24 -106 -6 -7 -5 -14 2 -18 5 -3 7 -14 2 -23 -4 -9 -7
-26 -6 -37 1 -30 43 -105 57 -102 7 1 11 -6 9 -17 -3 -14 1 -17 13 -12 9 3 14
2 11 -2 -9 -15 30 -39 62 -38 18 1 32 -1 32 -4 0 -7 139 -1 203 9 5 0 5 6 2
11 -3 6 2 10 12 10 15 0 16 2 3 10 -13 8 -13 10 1 10 9 0 23 8 30 17 12 15 12
16 -1 8 -8 -4 -1 7 15 25 17 18 24 30 18 26 -9 -5 -11 -2 -7 8 3 9 10 14 14
11 5 -3 7 3 5 12 -1 10 2 24 8 31 6 8 6 12 -3 12 -7 0 -10 8 -7 20 3 11 1 20
-4 20 -5 0 -9 15 -9 33 0 42 19 109 29 103 5 -3 7 6 5 19 -1 14 2 23 7 20 4
-3 11 6 15 20 3 14 10 25 16 25 5 0 7 4 4 8 -3 5 4 16 15 25 11 10 17 22 14
27 -3 6 -1 10 5 10 6 0 8 5 5 10 -3 6 -2 10 2 10 5 0 14 9 21 21 11 17 11 20
0 15 -7 -4 -3 1 10 10 12 9 22 21 22 26 0 15 37 58 44 51 3 -3 6 0 6 7 0 7 3
10 6 7 4 -3 15 -2 24 3 13 7 20 6 24 -5 3 -8 11 -13 18 -11 7 1 10 1 6 -1 -5
-3 -8 -9 -8 -14 0 -6 5 -7 10 -4 5 3 10 -1 10 -9 0 -8 8 -17 18 -21 11 -3 24
-17 30 -30 6 -14 16 -25 22 -25 5 0 10 -9 10 -21 0 -11 4 -18 9 -15 5 4 8 -2
7 -11 -2 -10 3 -28 11 -40 8 -12 12 -27 8 -33 -3 -5 1 -10 10 -10 9 0 14 -4
11 -9 -8 -13 14 -71 27 -71 7 0 5 -5 -3 -10 -8 -5 -10 -10 -4 -10 8 0 12 -27
12 -80 0 -44 3 -84 6 -89 4 -5 2 -13 -4 -16 -7 -4 -8 -11 -2 -18 5 -7 6 -21 2
-32 -4 -11 -4 -30 1 -42 5 -13 4 -25 -2 -29 -7 -4 -7 -10 0 -18 6 -7 9 -15 6
-18 -3 -2 -7 -26 -10 -52 -4 -38 -12 -54 -37 -78 -18 -17 -25 -25 -15 -18 9 7
20 11 23 8 2 -3 -10 -12 -28 -21 -43 -20 -223 -23 -246 -5 -13 11 -14 11 -7
-2 6 -12 5 -13 -6 -2 -8 8 -45 12 -102 12 -48 0 -86 4 -83 8 2 4 -7 9 -22 10
-14 1 -29 8 -34 15 -6 9 -8 9 -8 -2 0 -10 -6 -8 -21 7 -11 12 -24 20 -30 17
-5 -4 -9 -1 -9 5 0 6 -4 8 -10 5 -5 -3 -10 -1 -10 5 0 6 -4 8 -10 5 -6 -3 -10
-2 -10 4 0 5 -9 8 -20 6 -11 -2 -22 1 -25 6 -4 5 -11 7 -16 4 -5 -4 -14 -3
-20 1 -7 4 -46 6 -88 5 -83 -2 -121 -19 -121 -52 0 -11 -4 -18 -8 -15 -4 2 -9
-6 -10 -20 -1 -13 -2 -35 -3 -49 -1 -14 -5 -25 -9 -25 -4 0 -7 -40 -7 -90 0
-69 3 -90 13 -90 8 0 14 -4 14 -9 0 -5 64 -10 142 -10 78 -1 145 -4 149 -7 4
-2 10 -1 12 4 3 4 22 7 42 6 22 -1 38 3 42 11 2 8 11 11 18 9 7 -3 16 -1 19 5
8 13 375 14 391 1 11 -9 15 -10 44 -10 20 0 38 -42 21 -48 -6 -2 -10 -8 -10
-13 0 -6 5 -7 10 -4 18 11 10 -10 -9 -24 -11 -8 -17 -20 -14 -27 3 -8 -2 -17
-11 -20 -9 -3 -16 -10 -16 -16 0 -5 6 -6 13 -3 6 4 5 0 -4 -7 -9 -7 -19 -22
-21 -33 -2 -11 -9 -19 -16 -18 -6 2 -9 -3 -6 -11 3 -7 -8 -28 -23 -47 -15 -18
-21 -29 -13 -24 8 4 4 -4 -9 -18 -14 -15 -20 -27 -15 -27 5 0 0 -7 -10 -15
-11 -8 -16 -15 -12 -15 5 0 2 -8 -5 -17 -12 -14 -12 -15 0 -9 8 6 7 0 -4 -18
-10 -14 -13 -26 -9 -26 5 0 3 -4 -4 -9 -7 -4 -14 -14 -15 -22 -2 -8 -6 -20
-10 -26 -5 -7 -5 -17 -2 -23 3 -5 2 -10 -3 -10 -6 0 -13 -7 -16 -16 -3 -8 -2
-12 4 -9 6 3 7 -1 4 -9 -3 -9 -9 -14 -13 -12 -6 4 -9 -23 -15 -111 0 -11 -4
-19 -8 -16 -7 4 -12 -12 -9 -29 0 -5 -4 -8 -10 -8 -6 0 -9 -6 -6 -13 4 -10 -3
-12 -24 -9 -16 2 -29 9 -29 16 0 6 -4 5 -9 -3 -7 -11 -10 -9 -16 9 -5 16 -9
19 -15 10 -6 -9 -10 -7 -15 9 -3 12 -10 19 -15 16 -5 -3 -15 4 -23 15 -7 11
-17 17 -20 13 -4 -3 -7 -1 -7 6 0 7 -5 9 -10 6 -6 -3 -10 1 -10 10 0 9 -5 13
-10 10 -6 -3 -10 -1 -10 4 0 6 -7 11 -15 11 -7 0 -19 8 -24 18 -8 13 -10 14
-11 2 0 -13 -2 -13 -9 0 -6 8 -8 17 -6 20 2 3 -6 7 -18 7 -12 1 -27 10 -34 19
-7 9 -17 13 -24 8 -8 -4 -10 -3 -5 4 4 7 1 12 -9 12 -9 0 -13 5 -10 10 3 6 -3
10 -14 10 -11 0 -27 9 -35 21 -8 12 -19 18 -25 15 -5 -4 -13 -1 -17 5 -4 8 -3
9 4 5 7 -4 12 -2 12 3 0 10 -13 14 -26 9 -3 -2 -10 5 -15 14 -6 11 -16 15 -26
11 -9 -4 -14 -2 -11 3 5 8 -23 43 -29 37 -8 -8 -23 -2 -18 7 3 6 -1 10 -10 10
-10 0 -13 5 -9 13 5 7 0 6 -11 -3 -10 -8 -16 -10 -13 -5 3 6 -5 20 -18 33 -13
12 -24 19 -24 15 0 -4 -5 -1 -10 7 -5 8 -15 15 -22 16 -33 3 -38 5 -38 17 0 6
-11 19 -23 28 -27 20 -113 21 -109 1 1 -6 -4 -11 -10 -10 -7 2 -12 -2 -11 -9
2 -8 -4 -10 -14 -6 -12 5 -15 2 -10 -10 4 -11 2 -14 -8 -11 -9 4 -19 -4 -26
-20 -7 -14 -16 -23 -20 -20 -5 3 -9 -2 -9 -11 0 -9 -4 -13 -10 -10 -5 3 -10 2
-10 -3 0 -5 -12 -21 -27 -36 -21 -22 -23 -26 -7 -21 13 4 12 2 -4 -6 -12 -7
-22 -16 -22 -22 0 -5 -7 -6 -16 -3 -15 6 -15 4 -3 -11 8 -10 9 -14 2 -10 -7 5
-17 -1 -23 -13 -6 -11 -16 -17 -22 -14 -7 5 -9 2 -5 -9 4 -10 2 -16 -6 -14
-14 2 -16 -176 -3 -228 14 -53 17 -97 21 -257 3 -91 9 -167 16 -179 8 -16 8
-20 -1 -14 -9 5 -10 2 -3 -11 5 -11 9 -26 8 -34 -1 -8 3 -21 8 -27 6 -9 5 -13
-2 -13 -9 0 -9 -5 -1 -20 8 -14 8 -20 0 -20 -6 0 -8 -5 -5 -11 9 -13 13 -69 5
-64 -3 2 -5 -19 -5 -46 0 -27 4 -49 8 -49 5 0 5 -5 2 -11 -7 -10 -9 -111 -3
-139 2 -8 8 -21 12 -29 6 -10 5 -12 -2 -7 -8 5 -10 1 -6 -9 4 -9 13 -14 20
-11 8 3 13 2 13 -2 -3 -20 2 -32 15 -32 8 0 17 -7 20 -16 3 -8 10 -12 16 -9 6
4 7 -1 3 -11 -5 -14 -3 -16 12 -10 11 4 16 4 13 1 -8 -9 34 -54 44 -48 4 2 5
-3 2 -11 -4 -10 -1 -16 9 -16 9 0 19 -9 22 -20 3 -11 12 -20 20 -20 7 0 15 -7
19 -15 3 -8 11 -14 18 -13 8 2 12 -5 10 -16 -3 -14 1 -17 13 -12 9 3 13 2 10
-4 -3 -6 1 -13 9 -16 9 -3 13 -10 10 -15 -3 -5 2 -9 10 -9 9 0 16 -6 16 -12 0
-10 3 -9 9 1 6 9 10 10 12 2 3 -9 65 -12 219 -11 180 0 216 2 223 15 4 8 13
15 20 15 8 0 6 -4 -3 -11 -11 -8 -12 -10 -1 -7 18 5 19 144 1 178 -8 14 -8 20
-1 16 6 -4 11 -2 11 3 0 6 -4 11 -9 11 -5 0 -10 12 -10 28 -1 23 -7 79 -10 91
-1 2 -9 -3 -18 -10 -11 -10 -14 -10 -9 -1 10 17 -65 17 -83 0 -11 -11 -12 -10
-6 1 5 9 4 12 -3 7 -7 -4 -12 -15 -12 -24 0 -13 -2 -14 -9 -4 -6 11 -10 10
-16 -5 -5 -10 -8 -21 -7 -25 1 -4 -6 -4 -16 -1 -9 3 -14 3 -10 -1 9 -10 -24
-44 -38 -39 -7 3 -15 0 -19 -6 -9 -16 -107 -13 -131 4 -12 8 -24 11 -28 7 -4
-3 -4 2 0 13 6 15 4 17 -10 12 -10 -4 -15 -3 -11 3 3 6 2 10 -4 10 -8 0 -25
36 -23 50 0 3 -4 11 -10 18 -6 6 -8 12 -4 12 3 0 -3 15 -14 34 -10 19 -15 36
-10 38 5 2 -6 33 -24 70 -19 37 -36 65 -40 62 -3 -2 -4 -1 -1 2 2 4 -2 21 -10
40 -10 24 -10 34 -2 37 9 3 9 7 1 18 -7 8 -8 23 -4 34 4 11 3 28 -2 38 -5 9
-5 17 0 17 7 0 8 33 2 50 -1 3 -2 9 -1 14 4 22 1 419 -3 423 -3 3 -1 15 4 28
5 13 6 26 3 29 -4 3 -1 6 5 6 7 0 11 6 10 13 -2 6 3 11 11 9 8 -2 11 3 8 12
-4 10 -1 13 8 9 8 -3 18 2 21 10 4 12 11 14 29 7 13 -5 26 -6 29 -3 3 4 6 1 6
-6 0 -7 4 -10 9 -7 5 3 12 -1 15 -10 4 -9 13 -14 21 -10 8 3 15 1 15 -5 0 -20
51 -55 73 -50 5 1 6 -3 2 -9 -4 -6 -12 -7 -19 -3 -7 4 -4 1 6 -8 9 -9 14 -20
10 -23 -3 -4 1 -4 11 0 12 4 17 1 17 -11 0 -9 4 -13 10 -10 5 3 10 -1 10 -10
0 -8 8 -19 18 -22 9 -4 26 -16 37 -26 11 -11 13 -16 5 -12 -8 4 -5 -2 7 -14
12 -11 29 -21 38 -21 9 0 13 -4 10 -10 -3 -5 -2 -10 4 -10 5 0 13 -9 16 -21 4
-11 9 -18 12 -15 9 8 33 -21 33 -41 0 -15 2 -16 10 -3 7 11 10 12 10 2 0 -17
26 -43 34 -35 3 4 6 -1 6 -11 0 -9 8 -20 18 -23 9 -4 26 -16 37 -26 11 -11 13
-16 5 -12 -8 4 -5 -2 7 -14 12 -11 30 -21 40 -21 15 0 16 -2 3 -10 -13 -8 -12
-10 4 -10 12 0 16 -5 12 -16 -3 -8 -2 -12 4 -9 6 3 10 1 10 -5 0 -6 4 -8 10
-5 5 3 10 -1 10 -10 0 -8 8 -19 18 -22 9 -4 26 -16 37 -26 11 -11 14 -16 6
-12 -9 5 -12 4 -7 -3 4 -7 17 -12 29 -12 18 0 19 -2 7 -10 -9 -6 -10 -10 -3
-10 19 0 64 -50 57 -62 -4 -7 -2 -8 4 -4 7 4 12 2 12 -4 0 -6 4 -8 10 -5 5 3
10 -3 10 -14 0 -12 4 -21 10 -21 5 0 9 -3 8 -7 -1 -5 3 -18 10 -30 7 -13 10
-23 7 -23 -3 0 0 -6 7 -14 7 -8 16 -12 19 -10 3 2 5 -7 4 -19 -3 -25 13 -49
26 -41 5 3 8 0 7 -8 -2 -7 2 -12 7 -11 6 1 11 -11 12 -25 0 -15 6 -28 12 -30
6 -2 11 -10 11 -18 0 -8 5 -14 10 -14 6 0 10 -7 10 -15 0 -8 5 -15 10 -15 6 0
10 -7 10 -15 0 -8 6 -15 14 -15 7 0 20 -8 27 -17 12 -15 12 -16 -1 -8 -8 4 -6
-1 5 -12 11 -10 28 -22 38 -26 9 -3 17 -13 17 -22 0 -8 7 -15 16 -15 8 0 12
-4 9 -10 -3 -6 4 -10 17 -11 13 0 18 -3 11 -6 -8 -3 -5 -12 10 -27 12 -13 26
-21 31 -18 5 3 6 -3 2 -13 -6 -16 -4 -16 11 -4 11 9 14 10 9 1 -4 -7 -1 -15 8
-18 9 -3 16 -12 16 -20 0 -8 4 -14 9 -14 11 0 33 -59 26 -70 -3 -5 -1 -10 4
-12 5 -1 12 -25 15 -53 8 -51 12 -78 19 -105 4 -15 10 -48 23 -120 3 -19 7
-52 8 -72 0 -21 4 -38 7 -38 3 0 6 -45 6 -100 0 -55 -3 -100 -7 -100 -8 0 -5
-48 3 -56 3 -4 2 -15 -3 -25 -7 -12 -6 -20 1 -24 6 -4 8 -13 5 -21 -3 -7 -1
-16 5 -19 5 -4 7 -11 3 -16 -3 -6 4 -21 16 -34 12 -13 19 -28 16 -33 -3 -5 4
-22 16 -38 13 -15 17 -25 10 -20 -9 6 -10 2 -1 -18 7 -14 16 -23 20 -20 5 3 6
-2 3 -10 -3 -8 1 -25 10 -38 18 -26 21 -58 5 -58 -6 0 -8 -7 -5 -16 4 -11 2
-15 -8 -11 -10 4 -13 1 -9 -9 3 -9 0 -14 -8 -12 -9 2 -13 -4 -11 -15 2 -9 -1
-17 -5 -16 -19 3 -33 -2 -33 -12 0 -7 -13 -25 -30 -41 -16 -15 -30 -35 -30
-43 0 -8 -4 -15 -10 -15 -5 0 -10 -7 -10 -15 0 -9 -7 -18 -15 -21 -8 -4 -15
-10 -15 -16 0 -5 6 -6 12 -2 7 3 0 -5 -15 -19 -16 -14 -26 -31 -22 -37 3 -6 1
-9 -7 -8 -7 2 -14 -7 -16 -20 -2 -13 -10 -26 -17 -28 -7 -3 -12 -16 -10 -30 1
-13 -4 -28 -12 -33 -8 -4 -14 -11 -14 -14 3 -20 0 -28 -8 -22 -6 3 -8 -4 -6
-15 2 -12 -2 -23 -10 -27 -8 -3 -15 -9 -15 -15 0 -5 6 -6 12 -3 7 4 3 -2 -9
-13 -17 -15 -19 -22 -10 -32 9 -10 9 -11 0 -6 -6 3 -14 2 -18 -4 -3 -5 -2 -10
4 -10 6 0 8 -7 4 -16 -3 -9 0 -20 8 -25 11 -7 10 -9 -6 -9 -18 0 -17 -3 8 -25
29 -28 29 -27 31 -68 1 -19 -6 -35 -20 -46 -18 -14 -20 -21 -11 -30 9 -10 8
-11 -7 -5 -13 5 -17 4 -12 -4 7 -11 -6 -17 -27 -13 -5 1 -5 -3 -2 -9 4 -6 -1
-18 -11 -26 -18 -13 -18 -14 1 -8 20 5 20 5 1 -10 -10 -8 -24 -12 -30 -9 -6 4
-4 -2 4 -12 10 -13 11 -16 2 -11 -9 5 -15 1 -19 -13 -3 -12 -10 -21 -15 -21
-5 0 -7 -4 -4 -8 3 -5 -6 -16 -19 -26 -13 -10 -21 -24 -18 -32 3 -9 -1 -12
-15 -9 -16 3 -18 -1 -14 -22 3 -18 1 -24 -7 -19 -6 4 -11 1 -11 -8 0 -9 -5
-16 -11 -16 -6 0 -9 -7 -5 -15 3 -8 2 -14 -2 -14 -21 3 -32 -2 -26 -13 5 -8 2
-9 -11 -4 -16 6 -16 4 -4 -11 8 -9 9 -14 4 -11 -14 9 -26 -1 -48 -35 -11 -17
-24 -26 -32 -23 -9 3 -12 0 -8 -10 4 -10 -2 -17 -16 -21 -14 -3 -20 -11 -17
-20 3 -8 2 -12 -3 -9 -12 8 -92 -64 -85 -75 3 -5 0 -9 -6 -9 -6 0 -8 -4 -5
-10 3 -6 -1 -7 -9 -4 -11 4 -16 0 -16 -12 0 -9 -3 -15 -6 -12 -3 4 -14 -2 -25
-13 -11 -11 -24 -17 -29 -14 -5 3 -12 0 -16 -6 -5 -8 -3 -9 6 -4 9 5 11 4 6
-3 -4 -7 -14 -12 -22 -12 -8 0 -17 -7 -20 -15 -4 -8 -11 -12 -17 -8 -5 3 -15
0 -21 -8 -6 -8 -15 -14 -21 -15 -24 -3 -55 -17 -55 -26 0 -5 -4 -6 -10 -3 -5
3 -10 1 -10 -4 0 -6 -3 -10 -7 -10 -19 3 -34 -2 -29 -9 4 -7 -10 -11 -51 -14
-7 -1 -13 -5 -13 -10 0 -5 -5 -6 -10 -3 -6 3 -10 1 -10 -5 0 -6 -5 -8 -10 -5
-6 4 -17 1 -25 -5 -8 -7 -15 -9 -15 -5 0 4 -8 1 -17 -6 -15 -12 -16 -12 -8 1
5 9 -1 7 -14 -5 -13 -11 -26 -19 -30 -19 -16 3 -50 -20 -44 -30 4 -6 0 -5 -9
2 -18 15 -34 0 -22 -20 4 -6 3 -8 -3 -5 -13 8 -55 -27 -45 -38 4 -5 -2 -5 -13
-1 -11 4 -16 4 -13 0 4 -4 3 -14 -2 -24 -6 -11 -5 -23 4 -35 10 -14 29 -17
110 -17 53 0 99 2 102 4 2 3 18 3 34 -1 49 -10 161 -1 153 12 -5 8 -2 8 9 0 8
-7 18 -10 21 -7 7 7 40 12 110 15 26 2 47 6 47 10 0 4 57 8 127 8 83 1 132 6
142 14 12 10 13 9 6 -3 -5 -8 5 -1 21 15 16 17 29 37 28 45 0 8 2 27 7 43 4
15 4 27 -1 27 -4 0 -4 16 0 34 4 19 5 37 2 40 -3 4 0 6 6 6 7 0 12 5 12 11 0
5 -6 7 -13 3 -6 -4 -4 2 6 13 9 11 14 23 10 26 -3 4 -1 7 6 7 7 0 10 4 6 9 -3
5 1 16 9 24 8 8 12 17 9 21 -4 3 -1 6 5 6 16 0 52 41 46 52 -3 5 0 7 7 6 7 -2
18 8 25 20 8 17 13 20 17 10 4 -8 6 -7 6 5 1 11 5 15 13 11 7 -5 9 -2 5 9 -4
12 -2 14 10 10 10 -4 14 -2 10 4 -9 15 19 36 35 27 9 -6 9 -3 -1 10 -12 15
-12 17 0 14 8 -2 13 2 12 9 -2 8 4 10 14 6 10 -4 14 -2 9 5 -3 6 0 14 7 19 8
4 19 17 26 28 12 20 12 20 6 0 -6 -20 -6 -20 13 0 14 14 17 24 9 33 -7 9 -6
11 7 6 11 -4 19 1 25 17 5 13 10 18 10 10 1 -14 16 -6 16 8 0 16 35 42 47 35
8 -5 7 0 -2 11 -9 11 -10 16 -2 11 7 -4 15 -1 18 9 4 9 13 14 22 10 12 -5 13
-3 2 10 -11 13 -11 16 1 13 8 -2 13 2 12 9 -2 8 4 10 14 6 9 -4 14 -2 11 3 -4
5 1 18 9 29 15 19 15 19 9 1 -7 -19 -6 -19 13 -2 26 23 61 15 97 -22 15 -15
23 -20 19 -12 -6 12 -5 13 6 2 7 -6 30 -12 50 -12 27 0 46 -8 66 -26 15 -14
22 -22 14 -18 -11 6 -13 3 -6 -12 13 -30 18 -164 5 -164 -5 0 -10 -12 -10 -26
0 -16 -4 -23 -12 -18 -7 5 -8 3 -3 -6 4 -7 4 -15 -1 -19 -5 -3 -14 -15 -20
-26 -6 -11 -21 -25 -33 -31 -29 -15 -40 -27 -16 -18 13 5 8 -2 -11 -19 -18
-15 -37 -27 -43 -27 -6 0 -11 -5 -11 -11 0 -5 4 -7 10 -4 6 3 7 -1 3 -10 -3
-10 -8 -12 -12 -7 -4 7 -12 6 -23 -2 -10 -7 -15 -16 -11 -19 3 -4 -1 -7 -10
-7 -10 0 -17 -7 -17 -16 0 -14 -3 -14 -15 -4 -13 11 -14 10 -8 -5 5 -14 3 -17
-10 -12 -12 4 -14 2 -10 -10 4 -11 2 -14 -5 -9 -7 4 -12 1 -12 -9 0 -9 -4 -14
-9 -11 -5 3 -12 -1 -15 -10 -3 -8 -10 -12 -16 -9 -6 4 -7 -1 -3 -11 4 -12 3
-15 -5 -10 -7 4 -12 1 -12 -9 0 -9 -4 -13 -10 -10 -5 3 -10 -1 -10 -10 0 -8
-7 -18 -15 -21 -13 -5 -13 -9 -3 -22 9 -11 9 -13 1 -9 -6 4 -15 2 -19 -4 -12
-20 -14 -100 -3 -117 9 -15 10 -14 5 3 -6 19 -5 19 8 2 12 -16 32 -18 187 -18
131 0 174 3 180 13 7 10 9 10 9 -1 0 -12 3 -12 12 -3 7 7 25 12 40 12 15 0 37
9 48 20 12 12 26 18 33 13 7 -4 7 0 -2 10 -12 15 -12 17 4 11 13 -5 16 -4 11
4 -4 7 -2 12 4 12 6 0 15 11 20 25 5 14 13 25 18 25 4 0 8 17 7 37 0 21 4 42
10 46 6 5 4 7 -5 6 -28 -3 -41 1 -36 10 3 4 -4 17 -17 27 -21 19 -21 19 -7 -1
13 -19 13 -19 -5 -3 -16 15 -17 19 -4 34 12 16 12 17 -1 9 -8 -4 -5 2 8 14 13
13 27 19 35 15 7 -5 5 0 -3 11 -8 10 -10 16 -3 12 7 -5 16 1 23 12 6 12 26 23
48 28 46 9 44 8 64 17 9 4 22 5 28 1 5 -3 10 -1 10 6 0 6 8 9 20 6 14 -3 24 1
31 15 9 16 8 19 -3 13 -7 -3 -4 1 6 9 11 9 15 16 10 16 -6 0 -11 10 -11 23 -3
45 -7 67 -15 67 -4 0 -8 9 -8 20 0 11 -4 20 -8 20 -4 0 -8 10 -9 22 -1 11 -6
24 -10 27 -4 3 -10 15 -11 26 -2 11 -7 25 -12 30 -4 6 -6 18 -5 27 2 10 -1 18
-6 18 -6 0 -7 5 -4 10 3 6 1 10 -6 10 -7 0 -10 3 -7 6 4 3 0 20 -7 39 -8 18
-11 35 -8 38 3 4 0 13 -7 22 -7 8 -9 15 -4 15 5 0 2 6 -6 13 -8 7 -16 21 -17
32 -2 11 -5 34 -9 50 -3 17 -7 39 -8 50 -2 11 -7 28 -11 37 -4 9 -4 22 0 28 3
5 1 10 -5 10 -7 0 -10 6 -7 13 2 6 -3 21 -12 31 -9 11 -10 16 -3 12 15 -9 15
-10 -2 38 -11 32 -11 45 -1 70 14 33 15 37 15 62 0 8 5 12 10 9 6 -4 10 -3 9
2 -5 27 2 53 13 47 8 -5 9 -2 5 9 -3 10 -2 17 4 17 6 0 7 5 4 10 -3 6 2 10 12
11 10 0 13 3 6 6 -9 3 -8 14 7 43 10 20 16 40 13 44 -4 3 -1 6 6 6 7 0 10 4 6
9 -3 6 3 14 12 20 10 6 14 11 10 11 -5 0 -2 7 7 15 20 20 66 20 66 -1 0 -8 4
-13 8 -10 4 2 9 -5 9 -17 1 -12 7 -23 13 -25 5 -2 10 -10 10 -18 0 -8 6 -14
14 -14 7 0 20 -8 27 -17 12 -15 12 -16 -1 -8 -8 4 -1 -5 15 -22 19 -18 33 -25
37 -19 4 6 8 1 8 -12 0 -13 4 -20 10 -17 5 3 10 -1 10 -9 0 -9 7 -16 15 -16 9
0 19 -8 22 -17 9 -24 29 -43 37 -36 3 4 6 -2 6 -11 0 -12 5 -16 14 -13 11 4
13 1 9 -10 -4 -11 -2 -14 5 -9 7 4 12 2 12 -4 0 -17 26 -40 35 -32 5 4 5 -2 1
-12 -6 -17 -5 -17 11 -5 9 8 14 9 10 3 -4 -6 4 -20 17 -29 13 -10 22 -24 19
-32 -4 -9 0 -11 11 -7 11 4 16 1 16 -10 0 -10 9 -16 23 -17 12 0 17 -3 10 -6
-13 -5 28 -53 46 -53 5 0 13 -10 16 -21 6 -17 9 -19 16 -8 6 11 9 11 9 1 0 -9
16 -12 55 -11 30 1 55 7 55 12 0 6 3 7 7 4 3 -4 16 -1 27 6 12 8 33 17 49 21
15 3 27 11 27 16 0 6 10 4 23 -5 13 -8 27 -12 31 -8 4 4 4 -1 0 -12 -6 -14 -4
-17 9 -12 11 4 14 2 11 -8 -7 -16 32 -40 39 -25 3 6 4 5 3 -2 -4 -18 13 -50
24 -43 5 3 11 1 15 -5 4 -6 11 -8 16 -5 5 4 9 -1 9 -10 0 -9 5 -13 10 -10 5 3
10 1 10 -5 0 -6 5 -8 10 -5 6 3 10 -3 10 -15 0 -12 4 -18 10 -15 5 3 10 1 10
-5 0 -6 5 -8 12 -4 7 4 8 3 4 -5 -4 -6 0 -14 8 -17 9 -3 13 -10 10 -15 -3 -5
2 -9 10 -9 8 0 18 -9 21 -20 3 -11 13 -20 21 -20 8 0 14 -7 14 -16 0 -8 4 -12
10 -9 5 3 10 1 10 -5 0 -6 5 -8 12 -4 8 5 9 2 5 -9 -4 -11 -1 -17 7 -17 8 0
17 -7 20 -16 3 -8 10 -13 16 -9 5 3 12 -6 16 -20 4 -18 11 -24 21 -20 10 3 13
1 10 -7 -5 -14 17 -40 26 -31 3 3 3 -4 0 -16 -3 -13 -1 -21 6 -21 7 0 9 -4 6
-10 -3 -5 -2 -10 2 -10 5 0 9 -20 9 -44 -1 -24 -5 -42 -9 -39 -14 9 -28 -20
-14 -30 9 -6 8 -7 -3 -6 -28 3 -41 -1 -36 -10 4 -5 -7 -15 -24 -23 -16 -7 -30
-16 -30 -20 0 -5 -9 -8 -21 -8 -11 0 -17 -5 -14 -10 3 -6 0 -10 -8 -10 -17 0
-57 -41 -57 -59 0 -7 -4 -9 -10 -6 -5 3 -10 -1 -10 -10 0 -9 -4 -14 -9 -11 -5
3 -12 -1 -15 -10 -3 -8 -10 -12 -16 -9 -6 4 -7 -1 -3 -11 4 -12 3 -15 -5 -10
-7 4 -12 1 -12 -8 0 -9 -5 -16 -11 -16 -5 0 -7 -6 -3 -13 6 -8 3 -8 -9 1 -14
12 -16 11 -12 -7 2 -13 -1 -18 -10 -15 -7 3 -16 0 -21 -7 -5 -8 -3 -10 7 -4
11 6 12 5 2 -6 -14 -14 -17 -78 -6 -117 4 -18 8 -20 14 -10 7 11 9 11 9 0 0
-10 24 -13 105 -11 58 1 105 7 105 11 0 5 41 8 90 6 50 -2 90 1 90 6 0 4 9 6
20 3 11 -3 18 -1 14 4 -3 5 0 9 6 9 7 0 10 6 7 14 -4 9 0 13 11 11 9 -2 21 -4
26 -4 5 -1 2 -9 -7 -19 -10 -10 -14 -21 -11 -24 3 -4 1 -15 -5 -27 -8 -14 -8
-22 1 -27 7 -5 8 -3 3 6 -5 8 -4 11 3 7 5 -4 8 -17 4 -30 -5 -20 -4 -21 11 -8
15 12 17 12 12 0 -11 -29 126 -26 177 3 22 12 28 14 56 17 6 0 12 8 12 16 0 8
5 15 10 15 6 0 9 3 9 8 -1 4 0 9 1 12 4 12 4 70 0 70 -3 0 -7 12 -8 26 -1 14
-5 31 -9 37 -9 15 -14 37 -14 59 0 10 -5 21 -11 24 -7 5 -8 2 -3 -6 5 -8 4
-11 -2 -7 -5 3 -9 23 -8 44 1 31 6 40 30 53 17 8 32 18 33 23 2 4 12 7 23 7
13 0 19 6 17 17 -2 10 2 18 8 18 16 0 41 29 36 43 -2 6 3 15 12 18 9 3 13 10
11 15 -3 5 1 21 9 36 8 16 16 37 18 48 1 11 7 23 12 27 5 3 10 17 12 30 4 43
11 62 22 66 7 2 12 8 12 13 0 6 -6 7 -13 4 -6 -4 -4 0 5 8 10 8 15 17 11 20
-3 4 -2 7 4 7 6 0 9 11 8 25 -2 14 1 23 6 19 5 -3 9 4 9 15 0 10 5 21 11 23 5
2 12 10 14 18 9 39 18 60 27 60 6 0 8 8 6 18 -3 10 1 23 9 30 7 7 10 18 7 24
-5 8 -1 9 11 4 15 -5 16 -4 5 9 -12 14 -7 19 13 16 5 -1 6 3 3 8 -3 5 1 14 9
21 8 7 15 19 15 26 0 8 5 14 10 14 6 0 10 12 10 26 0 15 4 23 11 19 6 -4 9 -1
7 8 -2 8 6 23 17 33 12 11 15 15 8 10 -10 -6 -12 -4 -7 8 3 9 10 16 15 16 5 0
9 7 9 16 0 8 4 13 9 10 5 -3 12 1 15 10 4 10 2 13 -7 9 -6 -4 -2 2 11 12 13
10 24 28 25 40 0 12 4 20 8 18 10 -7 32 42 25 54 -5 7 -1 9 8 5 11 -4 16 0 16
11 0 9 7 23 15 32 8 8 13 19 10 23 -3 5 4 14 16 20 13 8 19 18 16 30 -4 14 0
18 14 15 11 -2 17 0 14 6 -4 5 11 25 32 46 21 20 29 30 18 22 -20 -13 -20 -13
-1 8 10 13 23 20 27 17 8 -5 13 10 10 29 0 4 2 6 6 6 20 -3 34 2 28 11 -3 6
-1 10 5 10 6 0 8 4 5 10 -3 6 1 7 10 4 9 -4 15 -2 13 2 -5 16 40 66 45 52 4
-9 6 -7 6 3 1 9 9 23 19 30 15 12 16 12 7 -1 -5 -9 0 -4 13 10 12 14 27 24 32
22 6 -1 9 4 8 10 -2 7 3 12 11 10 9 -2 11 3 7 13 -3 9 -2 14 3 10 5 -3 17 2
25 11 9 8 16 13 16 9 0 -3 9 -1 20 5 16 9 18 8 14 -5 -4 -10 0 -15 13 -15 24
0 43 -51 48 -127 2 -30 6 -58 9 -60 3 -3 1 -15 -4 -27 -4 -13 -4 -29 1 -39 7
-11 6 -17 -1 -17 -6 0 -8 -5 -5 -11 10 -14 13 -69 4 -64 -8 6 -4 -53 4 -61 3
-4 0 -21 -8 -39 -7 -19 -11 -36 -8 -39 3 -2 1 -10 -3 -17 -7 -12 -13 -44 -15
-81 0 -10 -4 -18 -8 -18 -5 0 -7 -11 -6 -25 2 -14 0 -25 -4 -25 -4 0 -8 -15
-9 -33 -2 -17 -7 -34 -12 -35 -6 -2 -8 -7 -5 -11 2 -5 0 -23 -6 -42 -10 -33
-18 -71 -21 -96 -1 -7 -4 -13 -8 -13 -3 0 -6 -8 -7 -17 0 -10 -4 -29 -8 -43
-4 -14 -9 -37 -12 -52 -3 -15 -8 -26 -12 -24 -3 2 -7 -10 -8 -27 -4 -49 -6
-57 -14 -57 -4 0 -6 -9 -4 -20 2 -11 -3 -27 -11 -35 -9 -8 -13 -15 -10 -15 3
0 -2 -16 -10 -35 -8 -19 -11 -35 -7 -35 5 0 0 -7 -11 -15 -10 -7 -15 -19 -11
-25 4 -6 1 -9 -7 -8 -7 2 -12 -3 -10 -9 1 -7 -3 -13 -9 -13 -6 0 -9 -7 -5 -15
3 -8 0 -14 -7 -12 -7 1 -11 -4 -9 -11 1 -8 -2 -11 -8 -7 -5 3 -10 -2 -10 -12
0 -15 -2 -16 -10 -3 -9 13 -10 13 -11 0 -1 -8 -1 -18 0 -23 0 -4 -2 -6 -6 -6
-5 1 -15 1 -23 0 -13 -1 -13 -2 0 -11 11 -7 11 -10 2 -10 -7 0 -18 -13 -23
-30 -6 -16 -15 -27 -20 -24 -9 5 -13 -10 -10 -30 1 -5 -6 -3 -16 4 -10 8 -15
11 -12 7 4 -4 -10 -25 -31 -45 -37 -36 -40 -41 -40 -63 0 -5 -4 -8 -9 -4 -6 3
-8 -4 -6 -15 2 -13 -1 -20 -11 -20 -8 0 -12 -4 -9 -10 3 -5 1 -10 -4 -10 -6 0
-11 -7 -11 -15 0 -8 -4 -15 -10 -15 -5 0 -10 -7 -10 -15 0 -9 -10 -20 -23 -25
-12 -5 -17 -9 -10 -9 7 -1 10 -10 7 -24 -5 -21 -6 -32 -2 -61 1 -16 106 -28
115 -13 2 4 9 5 14 2 5 -3 48 -5 96 -5 49 1 96 1 106 1 9 0 17 4 17 8 0 4 16
8 35 9 19 1 44 6 55 12 11 6 26 8 32 4 7 -4 8 -3 4 5 -4 6 -2 19 6 28 11 14
11 16 -2 9 -8 -4 -6 0 4 8 11 9 16 16 10 16 -5 0 -2 5 6 10 8 5 11 10 5 10 -5
0 -10 21 -10 47 0 36 -4 48 -15 49 -28 1 -49 16 -47 34 1 10 5 16 9 14 4 -3 8
0 8 6 0 6 5 8 12 4 8 -5 9 -2 5 9 -3 9 -3 16 1 16 20 -3 32 3 32 16 0 9 6 12
17 8 11 -4 14 -3 9 5 -5 8 -2 10 8 6 9 -3 16 -1 16 5 0 6 3 10 8 9 4 -1 17 3
28 10 12 6 25 8 29 4 5 -4 6 -2 2 3 -3 6 6 15 19 22 18 8 23 8 18 0 -3 -7 2
-3 10 7 9 11 16 16 16 11 0 -5 7 0 16 11 8 10 12 13 8 5 -5 -10 -3 -12 5 -7 9
6 9 11 0 22 -9 12 -9 13 3 9 16 -7 16 -13 20 310 1 65 6 113 12 117 7 5 6 8
-2 8 -7 0 -10 5 -7 11 4 6 8 23 10 37 2 15 6 38 10 52 3 14 6 37 6 53 0 15 5
27 10 27 5 0 8 3 8 8 -1 4 0 10 1 15 5 15 8 27 9 43 1 9 6 12 14 8 9 -6 9 -4
-1 8 -9 11 -10 18 -2 23 6 3 8 11 5 16 -4 5 -2 9 4 9 5 0 8 11 6 25 -1 14 1
25 6 25 4 0 10 13 14 30 4 16 11 30 16 30 6 0 8 4 5 9 -4 5 -1 22 5 38 12 28
15 37 17 61 1 7 6 11 11 8 5 -4 8 2 6 11 -1 10 2 24 8 31 5 6 7 12 3 12 -4 0
0 10 9 23 8 13 12 27 8 30 -3 4 -1 7 6 7 7 0 10 4 7 9 -3 5 4 15 17 24 19 12
24 12 35 0 7 -7 18 -11 23 -7 5 3 8 0 7 -8 -2 -7 2 -12 9 -11 7 2 10 -4 6 -13
-5 -13 -2 -15 18 -9 21 7 22 6 10 -9 -7 -9 -9 -16 -3 -16 5 0 26 -16 45 -35
19 -19 38 -31 43 -27 5 4 2 -1 -5 -10 -11 -15 -10 -17 9 -13 12 2 23 -2 27
-10 3 -8 9 -12 15 -9 5 3 17 -3 27 -15 10 -11 21 -18 25 -14 3 3 6 1 6 -6 0
-7 5 -9 10 -6 6 3 10 1 10 -5 0 -6 4 -8 10 -5 6 3 10 1 10 -5 0 -7 7 -9 16 -6
8 3 12 2 9 -4 -6 -9 8 -14 28 -11 4 0 7 -4 7 -10 0 -5 5 -7 10 -4 6 3 10 1 10
-5 0 -6 4 -8 10 -5 5 3 10 1 10 -5 0 -6 4 -9 9 -6 5 4 11 2 13 -4 1 -5 12 -11
23 -13 11 -1 26 -6 33 -10 6 -5 16 -5 22 -2 6 3 10 2 10 -4 0 -7 8 -7 24 -1
13 5 28 6 32 2 5 -4 2 2 -6 12 -13 17 -13 18 -1 11 11 -6 13 -4 8 8 -3 10 -2
17 3 17 6 0 6 9 1 23 -5 12 -5 32 0 45 5 12 5 22 0 22 -5 0 -6 12 -2 27 4 16
4 43 -1 62 -7 25 -6 36 4 42 10 7 9 9 -4 9 -15 0 -18 10 -19 53 -1 50 -3 66
-9 77 -1 3 -3 19 -4 37 -1 18 -4 35 -7 38 -4 3 -3 24 1 45 4 22 3 43 -1 46 -5
3 -7 10 -3 15 3 5 0 16 -6 24 -7 8 -9 15 -6 15 4 0 2 9 -4 20 -6 11 -7 20 -2
20 7 0 8 42 1 76 -1 5 -1 11 0 14 1 3 3 104 5 225 1 121 6 231 10 245 5 14 9
33 9 42 1 9 4 15 8 12 4 -2 7 6 7 19 0 38 23 117 34 117 6 0 5 7 -3 17 -8 9
-9 14 -2 10 7 -5 14 4 18 23 4 19 11 28 18 23 8 -4 7 -1 -1 9 -9 11 -10 18 -2
23 5 3 10 15 10 26 0 10 5 19 11 19 5 0 7 4 4 10 -3 5 -1 10 5 10 6 0 8 4 5
10 -3 6 -1 10 6 10 7 0 10 3 6 6 -3 4 1 13 9 21 8 8 12 19 9 24 -4 5 -1 9 5 9
6 0 9 4 5 9 -3 6 3 14 12 20 11 6 13 11 5 11 -10 0 -10 3 0 14 7 8 16 12 19
10 3 -2 5 8 3 21 -1 17 3 25 12 25 9 0 13 4 10 9 -3 5 1 12 10 15 9 4 14 9 11
12 -3 4 1 13 9 21 8 8 12 19 9 24 -4 5 -1 9 5 9 6 0 9 4 6 9 -3 4 4 17 17 27
21 19 21 19 7 -1 -14 -18 -14 -19 2 -6 10 7 16 17 13 21 -3 5 2 15 10 23 8 9
15 20 15 26 0 6 5 11 11 11 5 0 8 4 5 9 -3 5 1 12 10 15 9 3 14 13 11 21 -4
10 -1 12 10 8 10 -4 14 -2 10 4 -4 6 0 18 8 26 8 9 15 20 15 25 0 10 49 58 56
55 13 -8 15 -1 4 13 -11 12 -11 15 1 12 8 -2 13 3 11 10 -1 6 5 12 13 12 8 0
15 4 15 9 0 6 18 31 40 56 22 25 40 41 40 35 0 -6 5 -8 10 -5 6 4 8 10 6 14
-5 8 77 94 88 92 17 -3 19 0 6 9 -13 9 -13 10 0 10 9 0 16 8 17 18 1 9 3 34 5
55 2 20 0 37 -4 37 -4 0 -4 10 1 23 5 13 5 30 0 39 -6 10 -6 19 0 23 7 4 7 15
1 31 -6 14 -7 23 -2 21 9 -6 7 127 -2 142 -4 6 -3 11 3 11 7 0 7 8 1 26 -6 14
-7 23 -2 21 4 -3 7 8 7 24 0 16 -4 29 -8 29 -4 0 -3 8 2 18 6 11 6 24 0 34 -6
10 -6 19 0 23 7 4 7 15 1 30 -6 17 -6 25 1 25 6 0 8 4 5 8 -3 5 -8 24 -11 43
-3 19 -10 36 -16 37 -5 2 -6 8 -3 14 4 6 6 63 5 127 -1 64 -2 122 -1 129 0 24
0 62 -1 75 0 6 2 29 3 50 2 20 -1 37 -5 37 -5 0 -7 9 -4 20 3 11 2 20 -2 20
-4 0 -7 24 -6 53 0 28 -2 56 -4 61 -8 17 -7 55 2 49 4 -2 5 8 1 23 -4 16 -7
33 -6 39 1 5 3 43 4 83 2 53 0 72 -9 72 -7 0 -12 3 -12 8 4 23 -3 34 -17 28
-8 -3 -13 -2 -10 3 3 5 -5 17 -19 27 -13 10 -22 21 -19 26 3 4 -2 8 -11 8 -9
0 -13 4 -10 10 3 6 -1 7 -9 4 -10 -4 -18 1 -22 11 -4 9 -12 14 -19 11 -7 -2
-22 6 -34 20 -11 13 -26 24 -32 24 -5 0 -7 4 -4 10 3 6 -1 7 -9 4 -9 -3 -16
-2 -16 4 0 6 -14 15 -30 21 -17 5 -30 15 -30 21 0 6 -4 8 -10 5 -6 -3 -10 -1
-10 5 0 6 -4 9 -9 6 -5 -3 -15 1 -22 10 -10 12 -30 15 -96 13 -46 -2 -83 -6
-83 -11 0 -4 -7 -4 -17 -1 -11 4 -14 3 -9 -6 5 -8 0 -10 -18 -7 -15 3 -24 1
-21 -5 6 -8 -50 -26 -67 -21 -4 1 -5 -4 -2 -11 2 -7 -3 -13 -13 -14 -16 -1
-50 -8 -63 -13 -3 -1 -8 -2 -12 -1 -5 0 -8 -4 -8 -10 0 -5 -4 -7 -10 -4 -5 3
-10 1 -10 -6 0 -7 -3 -9 -7 -6 -3 4 -12 -1 -20 -11 -10 -11 -12 -12 -8 -2 4 8
-1 6 -9 -4 -9 -11 -16 -16 -16 -10 0 5 -5 1 -11 -9 -5 -9 -7 -22 -3 -29 4 -7
3 -8 -4 -4 -7 4 -12 2 -12 -4 0 -6 -6 -8 -12 -4 -7 4 -10 4 -6 0 8 -10 -11
-67 -29 -84 -7 -8 -11 -18 -8 -23 4 -5 1 -9 -5 -9 -6 0 -8 -4 -5 -10 3 -5 1
-10 -5 -10 -6 0 -8 -4 -5 -10 3 -5 1 -10 -5 -10 -6 0 -8 -4 -5 -10 3 -5 2 -10
-3 -10 -6 0 -13 -12 -17 -27 -3 -15 -11 -30 -16 -34 -6 -3 -11 -15 -12 -27 0
-11 -5 -18 -9 -16 -4 3 -10 -7 -14 -21 -3 -14 -10 -25 -15 -25 -5 0 -9 -5 -9
-11 0 -5 6 -7 13 -3 6 4 2 -3 -11 -15 -12 -12 -20 -26 -17 -32 4 -5 0 -12 -9
-15 -8 -3 -13 -14 -11 -25 2 -11 0 -17 -6 -14 -9 6 -13 -8 -10 -34 2 -7 -2
-10 -8 -7 -5 3 -15 -11 -22 -31 -6 -21 -16 -41 -21 -44 -5 -3 -10 -15 -11 -27
0 -11 -5 -18 -9 -16 -4 3 -10 -7 -14 -21 -3 -14 -10 -25 -15 -25 -5 0 -9 -5
-9 -11 0 -5 6 -7 13 -4 6 4 4 0 -5 -8 -10 -8 -15 -17 -11 -20 3 -4 2 -7 -4 -7
-6 0 -9 -9 -6 -20 3 -12 0 -20 -7 -20 -7 0 -10 -7 -6 -16 3 -8 2 -12 -4 -9 -9
6 -14 -8 -11 -27 0 -5 -4 -8 -10 -8 -5 0 -7 -4 -4 -10 3 -5 1 -10 -5 -10 -7 0
-9 -7 -6 -16 3 -8 2 -12 -4 -9 -6 3 -10 -3 -10 -15 0 -14 -4 -19 -12 -14 -7 5
-9 2 -5 -9 4 -11 2 -14 -9 -10 -7 3 -14 1 -14 -4 0 -5 -7 -10 -15 -10 -8 0
-15 4 -15 9 0 5 -4 7 -9 4 -5 -3 -12 1 -15 10 -4 9 -13 14 -21 10 -10 -3 -15
1 -15 11 0 9 -3 14 -6 10 -4 -3 -13 0 -21 8 -8 8 -24 15 -37 15 -12 0 -27 5
-34 12 -9 9 -12 9 -12 -1 0 -9 -5 -7 -16 4 -9 9 -23 14 -31 11 -8 -3 -12 -2
-9 3 3 5 -6 9 -19 10 -47 3 -55 4 -55 11 0 8 15 8 -250 9 -269 0 -262 0 -275
-10 -6 -4 -72 -8 -148 -8 -75 0 -141 -2 -146 -5 -5 -3 -12 1 -15 10 -3 8 -10
12 -16 9 -5 -3 -10 0 -10 8 0 8 -7 18 -16 21 -8 3 -12 10 -9 16 3 6 -1 7 -9 4
-15 -6 -21 6 -17 29 1 5 -3 5 -10 2 -12 -8 -51 29 -42 39 4 3 1 6 -6 6 -7 0
-9 4 -6 10 3 6 -1 7 -9 4 -11 -4 -16 0 -16 11 0 15 -3 15 -15 5 -13 -11 -14
-10 -9 3 6 17 -19 51 -30 40 -3 -4 -6 -1 -6 6 0 16 -26 42 -34 34 -3 -4 -6 1
-6 10 0 10 -8 17 -18 17 -10 0 -24 9 -32 20 -8 11 -20 20 -28 20 -7 0 -15 6
-18 14 -3 8 -13 17 -21 20 -14 6 -14 4 -2 -11 11 -14 9 -13 -12 2 -15 11 -25
23 -22 28 4 7 -12 11 -30 8 -5 -1 -6 3 -2 9 3 5 1 10 -5 10 -6 0 -8 5 -4 13 5
7 0 6 -11 -3 -10 -8 -16 -10 -12 -4 8 13 -29 49 -60 59 -13 3 -23 13 -23 21 0
8 -5 14 -11 14 -5 0 -7 5 -4 10 3 6 1 10 -5 10 -7 0 -10 29 -7 88 4 97 7 111
25 130 7 8 9 19 5 25 -4 7 0 8 12 3 15 -5 16 -4 5 9 -11 13 -10 14 4 9 11 -4
16 -1 16 11 0 9 4 14 9 11 5 -3 12 1 15 10 3 8 10 12 16 9 6 -4 7 1 3 11 -4
12 -3 15 5 10 7 -4 12 -1 12 8 0 8 5 18 12 22 7 5 8 3 3 -6 -5 -8 -4 -11 3 -6
6 4 8 14 5 23 -5 13 -2 15 11 10 9 -4 15 -3 11 2 -3 5 -1 12 5 16 6 4 8 10 5
15 -3 4 2 10 10 14 8 3 15 12 15 20 0 7 7 17 16 20 8 3 13 10 9 15 -3 5 -1 12
5 16 6 4 8 11 5 16 -4 5 2 9 12 10 10 0 13 3 7 5 -12 5 -6 54 6 54 5 0 7 11 5
25 -1 14 2 25 7 25 5 0 4 9 -2 20 -6 11 -7 20 -2 20 10 0 9 30 -2 48 -4 7 -2
12 5 12 10 0 10 3 2 11 -8 8 -8 20 -3 34 5 13 6 26 2 29 -3 4 -7 17 -7 29 0
12 -6 32 -13 45 -7 12 -10 28 -6 34 5 7 2 9 -9 5 -11 -4 -14 -2 -11 7 6 16
-35 88 -46 81 -5 -3 -12 0 -16 6 -4 8 -3 9 4 5 7 -4 12 -2 12 3 0 10 -14 15
-34 12 -5 -1 -6 5 -3 14 4 9 1 15 -8 15 -8 0 -15 7 -15 17 0 9 -3 13 -7 10 -3
-4 -20 8 -36 26 -17 17 -27 25 -23 17 5 -9 2 -9 -7 2 -8 10 -17 15 -20 11 -4
-3 -7 -1 -7 5 0 7 -9 12 -21 12 -11 0 -18 4 -15 9 3 5 -42 9 -101 10 -58 1
-110 4 -114 7 -4 2 -10 1 -13 -4 -2 -4 -23 -7 -45 -6 -23 0 -41 -3 -41 -7 0
-5 -7 -5 -17 -2 -11 4 -14 3 -9 -6 5 -8 3 -12 -5 -10 -29 3 -39 -2 -39 -18 0
-14 -2 -15 -9 -4 -6 9 -11 10 -15 2 -4 -6 -16 -11 -27 -11 -10 0 -19 -4 -19
-9 0 -5 -9 -13 -20 -16 -11 -4 -17 -11 -14 -17 5 -7 1 -9 -9 -5 -9 3 -17 1
-19 -4 -2 -6 -12 -12 -23 -13 -11 -2 -19 -9 -17 -15 1 -6 -7 -12 -18 -12 -39
-3 -45 -5 -42 -17 1 -7 -4 -11 -10 -10 -7 2 -12 -5 -12 -15 2 -15 -1 -16 -15
-5 -9 7 -13 8 -8 3 4 -4 0 -19 -9 -33 -9 -13 -11 -21 -5 -18 7 4 11 -1 11 -13
0 -11 5 -23 11 -27 13 -8 63 -16 91 -16 13 1 17 -6 16 -23 -2 -19 -5 -22 -16
-13 -7 6 -12 7 -10 2 3 -13 -22 -55 -30 -50 -4 2 -8 -3 -8 -12 -1 -29 -8 -46
-24 -60 -13 -12 -13 -13 0 -6 8 4 5 -3 -8 -16 -13 -12 -21 -29 -18 -37 3 -8 2
-12 -3 -9 -5 3 -12 -1 -15 -10 -4 -10 -2 -13 6 -8 7 5 9 0 6 -14 -5 -16 -2
-22 10 -22 14 0 14 -2 3 -9 -9 -6 -10 -10 -2 -12 16 -6 19 -28 20 -121 1 -54
5 -81 16 -92 8 -8 15 -19 15 -24 0 -15 28 -22 34 -9 3 9 5 9 5 0 1 -9 22 -13
71 -13 64 0 70 -2 70 -21 0 -13 4 -18 12 -13 8 5 9 -2 4 -27 -5 -19 -8 -40 -9
-46 0 -7 -4 -13 -9 -13 -4 0 -7 -3 -7 -7 3 -19 -2 -34 -10 -29 -4 3 -7 -6 -5
-19 1 -14 -2 -25 -7 -25 -6 0 -7 -4 -4 -10 3 -5 1 -10 -5 -10 -7 0 -10 -7 -7
-14 4 -10 1 -13 -9 -9 -9 3 -14 0 -12 -8 2 -8 -3 -13 -11 -11 -8 2 -11 -3 -8
-12 4 -10 1 -13 -9 -9 -9 3 -14 -1 -14 -12 0 -9 -4 -14 -9 -11 -10 7 -61 -16
-61 -27 0 -5 -4 -5 -10 -2 -5 3 -10 1 -10 -5 0 -6 -4 -9 -9 -5 -5 3 -12 1 -16
-5 -11 -17 -106 -12 -128 8 -11 9 -17 11 -13 5 4 -7 5 -13 2 -13 -10 0 -46 82
-40 91 3 5 1 9 -3 9 -5 0 -14 18 -20 40 -7 29 -7 40 1 40 8 0 8 2 0 8 -13 8
-20 30 -29 82 -3 19 -9 37 -13 40 -4 3 -7 12 -7 20 1 8 -3 20 -8 27 -5 7 -6
17 -2 23 3 5 2 10 -3 10 -5 0 -15 25 -22 55 -7 30 -16 55 -19 55 -4 0 -7 10
-8 22 -1 11 -6 24 -10 27 -5 3 -8 13 -8 21 1 8 -2 20 -6 25 -4 6 -9 19 -11 30
-4 24 -20 45 -30 38 -4 -2 -5 2 -3 10 6 15 -19 70 -28 61 -6 -6 -7 2 -8 54 0
12 -4 20 -10 17 -5 -4 -9 3 -9 15 0 12 -4 18 -10 15 -5 -3 -10 3 -10 14 0 12
-5 21 -12 21 -6 0 -8 3 -5 7 4 3 -1 12 -11 19 -9 7 -17 18 -18 26 -3 31 -18
58 -33 58 -14 0 -14 2 -1 10 13 8 13 11 1 22 -11 11 -13 11 -6 -1 5 -9 4 -12
-3 -7 -6 3 -9 15 -7 26 2 12 -2 20 -10 20 -8 0 -12 8 -10 19 2 11 -3 22 -12
25 -8 4 -13 13 -9 21 3 8 1 15 -3 15 -5 0 -22 18 -39 40 -16 22 -32 37 -36 33
-4 -4 -4 0 0 10 4 12 1 17 -10 17 -9 0 -16 5 -16 11 0 5 -6 7 -12 3 -7 -4 -10
-4 -6 1 10 11 -10 45 -27 45 -8 0 -15 5 -15 11 0 5 -4 7 -10 4 -5 -3 -7 0 -4
9 3 9 -3 19 -18 27 -13 7 -29 21 -36 31 -7 10 -17 16 -22 13 -5 -3 -16 2 -24
11 -9 8 -16 13 -16 9 0 -4 -7 1 -16 9 -8 9 -19 14 -24 11 -4 -3 -13 2 -20 10
-7 8 -16 12 -21 9 -5 -3 -9 2 -9 10 0 9 -3 15 -7 15 -21 -3 -33 2 -27 13 4 6
3 8 -4 4 -5 -3 -24 5 -40 19 -16 14 -37 25 -46 25 -9 0 -16 5 -16 10 0 6 -7
10 -15 10 -8 0 -15 5 -15 11 0 5 -4 8 -9 4 -5 -3 -16 2 -24 10 -9 8 -21 15
-27 15 -6 0 -8 5 -4 12 4 6 3 8 -4 4 -6 -3 -17 0 -25 8 -11 11 -17 12 -26 3
-9 -9 -11 -8 -6 4 4 10 1 20 -6 25 -7 4 -10 3 -6 -3 3 -5 0 -10 -8 -10 -7 0
-12 8 -10 19 2 10 0 16 -5 13 -4 -3 -16 2 -24 11 -12 11 -16 12 -16 2 0 -10
-3 -10 -9 2 -6 8 -8 17 -6 20 2 3 -6 7 -18 7 -12 1 -27 10 -34 19 -7 9 -17 13
-24 8 -8 -4 -10 -3 -5 4 4 7 1 12 -9 12 -9 0 -13 5 -10 10 3 6 -3 10 -14 10
-12 0 -21 4 -21 10 0 5 -4 9 -9 7 -5 -1 -17 7 -26 18 -9 11 -14 13 -10 5 4
-10 2 -9 -8 2 -13 16 -40 18 -295 17 -160 0 -284 -5 -287 -10 -4 -5 -24 -9
-46 -9 -28 0 -38 -4 -33 -12 5 -7 3 -8 -7 -3 -22 14 -50 13 -56 -2 -3 -7 -9
-11 -13 -8 -5 3 -11 1 -15 -5 -3 -5 -24 -10 -46 -10 -28 0 -38 4 -33 12 4 6 3
9 -2 6 -5 -3 -20 -1 -34 5 -14 5 -31 11 -39 13 -8 1 -17 7 -20 12 -3 5 -14 8
-24 6 -10 -1 -21 4 -24 12 -4 11 -8 12 -20 3 -11 -10 -13 -9 -11 2 2 8 -3 13
-9 12 -7 -2 -13 1 -13 5 0 5 -20 10 -44 10 -41 2 -44 1 -48 -28z m1597 -330
c3 -6 -1 -7 -9 -4 -18 7 -21 14 -7 14 6 0 13 -4 16 -10z m4250 -1450 c-3 -5
-1 -10 4 -10 6 0 11 4 11 9 0 17 39 6 60 -17 16 -17 21 -32 18 -53 -3 -16 -1
-32 4 -35 5 -3 5 -10 2 -16 -10 -16 -11 -60 -1 -80 5 -11 4 -18 -3 -18 -6 0
-8 -5 -5 -11 9 -13 13 -69 5 -64 -3 2 -5 -19 -5 -46 0 -27 3 -49 7 -49 4 0 3
-12 -1 -27 -4 -16 -6 -38 -5 -50 1 -13 -3 -23 -9 -23 -5 0 -7 -11 -5 -25 3
-13 1 -22 -3 -19 -8 5 -14 -18 -10 -39 1 -4 -5 -10 -13 -13 -8 -3 -12 -12 -9
-20 3 -8 0 -14 -6 -14 -6 0 -11 -9 -11 -20 0 -11 -5 -20 -11 -20 -5 0 -7 -4
-4 -10 3 -5 2 -10 -3 -10 -5 0 -8 -11 -7 -25 2 -14 -1 -23 -6 -19 -8 5 -13 -9
-10 -29 1 -4 -5 -10 -13 -13 -8 -3 -12 -12 -9 -20 3 -7 -2 -17 -11 -20 -9 -3
-14 -10 -11 -15 3 -4 -2 -17 -12 -29 -10 -11 -17 -23 -15 -25 1 -3 -7 -14 -18
-25 -12 -12 -18 -25 -15 -30 4 -6 1 -10 -5 -10 -6 0 -8 -4 -5 -10 3 -5 1 -10
-4 -10 -6 0 -11 -8 -11 -17 0 -14 -2 -15 -9 -5 -6 10 -10 3 -15 -22 -4 -20
-12 -36 -18 -36 -5 0 -8 -7 -5 -14 4 -10 1 -13 -8 -10 -10 4 -13 0 -10 -15 2
-12 0 -19 -5 -16 -10 6 -32 -29 -24 -38 3 -2 -7 -14 -22 -26 -15 -11 -21 -21
-15 -21 7 0 1 -11 -13 -23 -16 -15 -22 -27 -16 -33 6 -6 -1 -10 -19 -9 -16 0
-27 3 -24 7 2 5 -1 8 -7 8 -6 0 -9 4 -5 9 3 5 1 12 -5 16 -5 3 -10 15 -10 26
0 10 -3 19 -7 19 -5 0 -9 12 -10 27 0 15 -9 33 -19 40 -13 10 -14 13 -3 13 10
1 9 3 -4 11 -9 6 -15 14 -12 19 3 5 1 11 -4 15 -5 3 -8 14 -6 25 2 12 0 18 -6
15 -5 -4 -9 3 -9 14 0 12 -4 21 -10 21 -5 0 -10 7 -10 16 0 8 -4 12 -10 9 -5
-3 -7 0 -4 8 3 8 -2 17 -11 21 -20 7 -18 60 5 96 8 13 14 25 13 27 -8 9 -1 23
9 17 6 -4 8 -3 4 4 -3 6 1 17 9 25 18 19 20 31 3 22 -7 -4 -5 0 5 8 9 8 17 19
17 26 0 6 7 14 15 17 8 4 12 10 9 15 -3 5 0 9 6 9 6 0 8 5 5 10 -3 6 -1 10 5
10 6 0 8 5 5 10 -3 6 1 13 9 16 9 3 16 10 16 16 0 5 -6 6 -12 2 -7 -4 -3 3 10
15 12 12 20 26 17 32 -4 5 1 12 9 15 9 3 16 10 16 16 0 5 -6 6 -12 3 -7 -4 -5
0 5 8 9 8 17 20 17 26 0 7 7 19 15 28 8 8 13 19 9 24 -3 5 2 12 10 15 9 3 16
10 16 16 0 5 -6 6 -12 3 -7 -4 -3 2 10 13 24 22 30 37 10 27 -7 -4 -5 0 5 8 9
8 17 21 17 30 0 8 5 17 11 19 5 2 12 12 13 23 2 11 8 19 14 18 5 -1 8 7 5 17
-3 12 0 20 7 20 7 0 10 7 6 16 -3 8 -2 12 4 9 9 -6 14 8 11 28 0 4 4 7 10 7 5
0 8 4 4 9 -3 5 4 12 15 16 11 4 18 10 15 15 -3 4 2 11 11 14 9 3 12 11 8 18
-6 9 -3 9 9 0 14 -12 16 -11 12 6 -2 13 2 19 13 18 10 0 16 5 14 13 -2 8 3 11
12 8 10 -4 20 2 26 13 6 11 13 20 16 20 3 0 2 -4 -1 -10z m-2440 -110 c3 -5 1
-10 -4 -10 -6 0 -11 5 -11 10 0 6 2 10 4 10 3 0 8 -4 11 -10z m-15 -2180 c14
-1 20 -4 13 -7 -10 -3 -10 -7 0 -18 7 -7 15 -11 20 -8 4 2 7 -3 7 -12 0 -10 5
-13 12 -9 8 5 9 2 5 -9 -4 -10 -1 -17 6 -17 7 0 13 -10 14 -22 1 -11 6 -24 10
-27 4 -3 9 -13 11 -21 2 -8 8 -16 13 -18 5 -2 9 -10 9 -18 0 -8 5 -14 10 -14
6 0 10 -9 10 -20 0 -18 11 -25 34 -21 5 1 6 -5 3 -13 -4 -9 0 -22 8 -30 8 -8
15 -19 15 -25 0 -6 9 -11 20 -11 14 0 18 -5 13 -17 -4 -10 -2 -14 5 -9 6 3 13
-2 17 -13 5 -17 38 -35 58 -32 5 1 6 -3 2 -9 -4 -6 -12 -7 -19 -3 -7 4 -4 1 6
-8 9 -9 14 -20 10 -23 -3 -4 1 -4 11 0 12 4 17 1 17 -11 0 -9 5 -13 10 -10 6
3 10 -1 10 -10 0 -8 8 -19 18 -22 9 -4 26 -16 37 -26 11 -11 14 -16 6 -12 -9
5 -12 4 -7 -3 4 -7 14 -12 23 -12 9 0 13 -6 10 -14 -4 -10 1 -13 18 -12 17 2
22 -1 17 -12 -4 -11 -1 -14 12 -9 10 4 15 3 11 -3 -3 -6 -1 -10 5 -10 6 0 8
-5 4 -12 -5 -8 0 -7 11 2 10 8 16 10 12 4 -4 -6 4 -20 17 -29 13 -10 22 -24
19 -32 -4 -9 0 -11 11 -7 9 3 16 1 16 -5 0 -19 48 -62 53 -48 3 7 6 2 6 -11 1
-15 5 -21 13 -16 8 5 9 2 4 -11 -6 -16 -4 -16 11 -4 11 9 14 10 9 1 -4 -7 -1
-14 7 -18 8 -3 17 -15 20 -26 3 -11 10 -17 16 -14 5 3 14 -8 20 -26 12 -38 11
-198 -2 -198 -4 0 -5 -4 -2 -10 3 -5 1 -10 -5 -10 -6 0 -8 -4 -5 -10 3 -5 1
-10 -4 -10 -6 0 -10 -6 -8 -12 1 -7 -3 -12 -9 -11 -7 1 -11 -3 -11 -10 1 -31
-4 -48 -12 -43 -5 3 -12 -10 -15 -29 -4 -19 -10 -35 -14 -35 -4 0 -13 -9 -20
-21 -11 -17 -11 -20 0 -14 7 5 3 -2 -9 -14 -13 -12 -23 -28 -23 -36 0 -8 -5
-17 -12 -21 -7 -5 -8 -3 -3 6 5 9 4 11 -4 6 -9 -6 -9 -11 1 -24 10 -12 10 -14
1 -8 -8 4 -13 2 -13 -5 0 -7 -10 -24 -22 -37 -13 -14 -16 -22 -8 -17 8 4 2 -7
-15 -25 -16 -18 -24 -30 -18 -26 9 5 11 2 7 -8 -3 -9 -11 -13 -17 -9 -7 4 -8
0 -4 -11 6 -14 3 -17 -8 -12 -10 3 -13 2 -10 -5 4 -5 1 -16 -5 -24 -6 -8 -9
-19 -5 -25 4 -6 3 -10 -2 -9 -22 4 -31 -3 -26 -21 3 -12 0 -20 -6 -20 -7 0 -9
-4 -6 -10 3 -5 1 -10 -6 -10 -7 0 -9 -3 -6 -6 4 -4 -3 -15 -15 -26 -22 -19
-35 -54 -16 -42 7 4 8 2 4 -4 -4 -7 -14 -12 -22 -12 -8 0 -14 -10 -14 -25 0
-16 -13 -34 -40 -56 -22 -18 -37 -36 -34 -40 3 -5 -3 -6 -12 -2 -12 4 -15 3
-10 -5 4 -7 3 -12 -2 -12 -4 0 -17 -8 -28 -18 -19 -18 -74 -35 -74 -23 0 3
-21 5 -46 4 -33 -1 -50 3 -65 18 -11 11 -25 17 -31 13 -6 -4 -8 -3 -5 3 4 6
-4 19 -18 29 -13 10 -22 21 -19 26 3 4 -2 8 -10 8 -8 0 -18 9 -21 20 -3 11
-11 20 -16 20 -6 0 -7 -6 -3 -12 4 -8 3 -9 -2 -5 -5 5 -9 16 -9 25 0 9 -10 21
-22 27 -13 5 -23 15 -23 22 0 7 -5 13 -10 13 -6 0 -16 11 -22 25 -8 19 -14 22
-20 13 -5 -9 -8 -6 -8 10 0 12 -4 22 -8 22 -4 0 -19 18 -32 39 -14 21 -28 37
-33 34 -4 -2 -6 -1 -5 4 1 4 -3 18 -10 31 -7 12 -10 22 -6 22 3 0 -4 9 -17 21
-13 11 -17 18 -9 14 10 -4 9 -2 -2 8 -10 8 -18 19 -18 25 0 6 -9 14 -20 17
-11 3 -20 13 -20 21 0 8 -4 14 -10 14 -5 0 -10 6 -10 13 0 7 -9 19 -19 27 -11
7 -18 17 -15 22 3 4 -2 5 -10 2 -11 -4 -16 0 -16 10 0 9 -7 16 -16 16 -8 0
-20 14 -25 30 -6 17 -18 30 -26 30 -8 0 -12 4 -8 9 3 6 -3 14 -12 20 -14 8
-15 11 -3 11 9 0 5 6 -10 15 -14 8 -19 14 -12 15 10 0 10 4 -2 16 -9 8 -16 19
-16 24 0 5 -7 6 -17 3 -11 -4 -14 -3 -9 6 4 6 2 18 -4 26 -7 8 -9 15 -4 15 5
0 2 5 -6 10 -12 7 -15 34 -14 137 0 70 3 139 6 153 3 14 6 29 7 33 0 5 5 6 9
3 4 -2 8 5 9 17 2 52 11 91 22 95 6 2 9 8 5 13 -3 5 0 9 6 9 6 0 8 4 5 10 -3
5 10 25 29 44 18 19 31 38 28 41 -4 4 0 5 8 3 9 -2 14 3 12 11 -3 12 -1 12 14
0 10 -8 15 -9 11 -2 -4 6 8 20 31 33 20 12 41 28 45 36 4 8 12 14 18 14 5 0
23 14 39 30 17 17 30 27 30 23 0 -4 5 0 11 10 6 9 15 14 21 11 8 -5 9 -1 5 10
-4 10 -3 15 3 11 5 -3 18 3 29 14 11 11 22 16 26 13 3 -4 3 2 -1 12 -5 13 -4
17 3 13 18 -11 37 116 21 139 -9 12 30 96 42 89 4 -3 11 2 14 11 3 8 9 13 14
10 4 -2 14 -1 21 3 7 5 22 7 34 6 12 -1 33 -3 47 -5z m-1285 -153 c19 -11 31
-67 15 -67 -4 0 -11 -16 -15 -36 -3 -20 -9 -34 -12 -31 -3 3 -11 0 -18 -6 -9
-9 -10 -16 -3 -25 8 -9 7 -11 -6 -6 -10 4 -16 1 -16 -9 0 -9 -8 -21 -17 -26
-10 -6 -14 -11 -10 -11 4 0 2 -6 -5 -14 -7 -8 -16 -12 -20 -9 -8 4 -12 -12 -9
-30 1 -5 -3 -6 -8 -3 -5 4 -16 -1 -23 -10 -7 -9 -32 -36 -54 -60 -36 -39 -47
-44 -84 -44 -24 0 -41 3 -37 6 8 8 -18 34 -33 34 -6 0 -8 5 -5 10 3 6 2 10 -3
10 -5 0 -15 15 -22 33 -6 17 -17 43 -22 57 -12 28 -19 62 -21 103 0 15 -4 27
-7 27 -4 0 -7 6 -8 13 -5 61 -1 89 13 99 17 13 407 8 430 -5z m1978 -1572 c-3
-9 -8 -14 -10 -11 -3 3 -2 9 2 15 9 16 15 13 8 -4z m-778 -15 c3 -5 1 -10 -4
-10 -6 0 -11 5 -11 10 0 6 2 10 4 10 3 0 8 -4 11 -10z m-2615 -609 c0 -5 -7
-12 -16 -15 -14 -5 -15 -4 -4 9 14 17 20 19 20 6z m2479 -64 c-2 -1 -15 -11
-29 -22 l-25 -20 19 23 c11 12 24 22 29 22 6 0 8 -1 6 -3z m1213 -67 c-12 -11
-25 -20 -29 -20 -9 1 36 40 45 40 3 0 -4 -9 -16 -20z"/>
<path d="M6000 3979 c0 -5 5 -7 10 -4 6 3 10 8 10 11 0 2 -4 4 -10 4 -5 0 -10
-5 -10 -11z"/>
<path d="M4144 1048 l-19 -23 23 19 c21 18 27 26 19 26 -2 0 -12 -10 -23 -22z"/>
<path d="M2299 2323 c-13 -16 -12 -17 4 -4 9 7 17 15 17 17 0 8 -8 3 -21 -13z"/>
<path d="M2455 6240 c3 -5 8 -10 11 -10 2 0 4 5 4 10 0 6 -5 10 -11 10 -5 0
-7 -4 -4 -10z"/>
<path d="M1289 5913 c-13 -16 -12 -17 4 -4 9 7 17 15 17 17 0 8 -8 3 -21 -13z"/>
<path d="M6789 3613 c-13 -16 -12 -17 4 -4 16 13 21 21 13 21 -2 0 -10 -8 -17
-17z"/>
<path d="M6589 3393 c-13 -16 -12 -17 4 -4 9 7 17 15 17 17 0 8 -8 3 -21 -13z"/>
<path d="M2039 483 c-13 -16 -12 -17 4 -4 16 13 21 21 13 21 -2 0 -10 -8 -17
-17z"/>
</g>
</svg>
